<?xml version="1.0" encoding="UTF-8" standalone="no"?>
<!-- Generator: Adobe Illustrator 15.0.0, SVG Export Plug-In . SVG Version: 6.00 Build 0)  -->

<svg
   version="1.1"
   x="0px"
   y="0px"
   width="425px"
   height="1417.75px"
   viewBox="0 0 425 1417.75"
   enable-background="new 0 0 425 1417.75"
   xml:space="preserve"
   id="svg3211"
   xmlns:xlink="http://www.w3.org/1999/xlink"
   xmlns="http://www.w3.org/2000/svg"
   xmlns:svg="http://www.w3.org/2000/svg"><defs
   id="defs3215" />
<g
   id="Layer_1"
   transform="matrix(1.0512495,0,0,1.032239,-10.970841,-7.4331128)">
	<g
   id="plane_bgr_1_">
		<g
   id="g14">
			<defs
   id="defs3">
				<polygon
   id="SVGID_1_"
   points="117.651,1381.941 306.591,1386.201 306.591,12.848 117.651,8.587 " />
			</defs>
			<defs
   id="defs6">
				<polygon
   id="SVGID_2_"
   points="117.681,8.618 306.621,12.878 306.621,1386.231 117.681,1381.971 " />
			</defs>
			<clipPath
   id="SVGID_3_">
				<use
   xlink:href="#SVGID_1_"
   overflow="visible"
   id="use8"
   x="0"
   y="0"
   width="100%"
   height="100%" />
			</clipPath>
			<clipPath
   id="SVGID_4_"
   clip-path="url(#SVGID_3_)">
				<use
   xlink:href="#SVGID_2_"
   overflow="visible"
   id="use11"
   x="0"
   y="0"
   width="100%"
   height="100%" />
			</clipPath>
		</g>
		<g
   id="g28">
			<defs
   id="defs17">
				<polygon
   id="SVGID_5_"
   points="117.651,1381.941 306.591,1386.201 306.591,12.848 117.651,8.587 " />
			</defs>
			<defs
   id="defs20">
				<polygon
   id="SVGID_6_"
   points="117.681,8.618 306.621,12.878 306.621,1386.231 117.681,1381.971 " />
			</defs>
			<clipPath
   id="SVGID_7_">
				<use
   xlink:href="#SVGID_5_"
   overflow="visible"
   id="use22"
   x="0"
   y="0"
   width="100%"
   height="100%" />
			</clipPath>
			<clipPath
   id="SVGID_8_"
   clip-path="url(#SVGID_7_)">
				<use
   xlink:href="#SVGID_6_"
   overflow="visible"
   id="use25"
   x="0"
   y="0"
   width="100%"
   height="100%" />
			</clipPath>
		</g>
		<g
   id="g50">
			<defs
   id="defs31">
				<polygon
   id="SVGID_9_"
   points="117.651,1381.941 306.591,1386.201 306.591,12.848 117.651,8.587 " />
			</defs>
			<defs
   id="defs34">
				<path
   id="SVGID_10_"
   d="m 129.249,206.018 c 30.627,-107.579 66.276,-178.786 83.12,-178.786 16.682,0 51.769,72.852 83.127,178.786 v 0 c 1.061,4.109 1.596,8.338 1.596,12.583 v 883.824 0 c 0,4.191 -0.521,8.366 -1.556,12.427 -41.023,161.159 -68.745,253.24 -83.167,253.24 -14.417,0 -42.137,-92.082 -83.16,-253.24 v 0 c -1.033,-4.062 -1.557,-8.236 -1.557,-12.427 v -883.824 0 c 0,-4.245 0.537,-8.474 1.597,-12.583 z" />
			</defs>
			<defs
   id="defs37">
				<polygon
   id="SVGID_11_"
   points="117.681,8.618 306.621,12.878 306.621,1386.231 117.681,1381.971 " />
			</defs>
			<clipPath
   id="SVGID_12_">
				<use
   xlink:href="#SVGID_9_"
   overflow="visible"
   id="use39"
   x="0"
   y="0"
   width="100%"
   height="100%" />
			</clipPath>
			<clipPath
   id="SVGID_13_"
   clip-path="url(#SVGID_12_)">
				<use
   xlink:href="#SVGID_10_"
   overflow="visible"
   id="use42"
   x="0"
   y="0"
   width="100%"
   height="100%" />
			</clipPath>
			<clipPath
   id="SVGID_14_"
   clip-path="url(#SVGID_13_)">
				<use
   xlink:href="#SVGID_11_"
   overflow="visible"
   id="use45"
   x="0"
   y="0"
   width="100%"
   height="100%" />
			</clipPath>
			<rect
   x="125.133"
   y="-125.734"
   clip-path="url(#SVGID_14_)"
   fill="#f3f3f3"
   width="174.479"
   height="1506.144"
   id="rect48" />
		</g>
		<g
   id="g66">
			<defs
   id="defs53">
				<polygon
   id="SVGID_15_"
   points="117.651,1379.673 306.591,1383.933 307.295,10.58 118.355,6.32 " />
			</defs>
			<defs
   id="defs56">
				<path
   id="SVGID_16_"
   d="m 131.719,227.11 v 0 861.402 c 23.603,116.337 50.485,153.205 80.65,153.205 30.17,0 57.055,-36.868 80.658,-153.205 v -861.55 c 0,0 0,-15.588 -4.347,-26.673 0,0 -19.762,-8.197 -77.269,-8.197 0,0 -63.307,1.144 -76.154,9.205 0.001,-0.001 -4.786,17.382 -3.538,25.813 z" />
			</defs>
			<clipPath
   id="SVGID_17_">
				<use
   xlink:href="#SVGID_15_"
   overflow="visible"
   id="use58"
   x="0"
   y="0"
   width="100%"
   height="100%" />
			</clipPath>
			<clipPath
   id="SVGID_18_"
   clip-path="url(#SVGID_17_)">
				<use
   xlink:href="#SVGID_16_"
   overflow="visible"
   id="use61"
   x="0"
   y="0"
   width="100%"
   height="100%" />
			</clipPath>
			<rect
   x="130.46001"
   y="-155.186"
   clip-path="url(#SVGID_18_)"
   fill="#ffffff"
   width="166.345"
   height="1420.7209"
   id="rect64" />
		</g>
		<g
   id="g74">
			<defs
   id="defs69">
				<rect
   id="SVGID_19_"
   x="117.651"
   y="8.8389997"
   width="188.94"
   height="1373.355" />
			</defs>
			<clipPath
   id="SVGID_20_">
				<use
   xlink:href="#SVGID_19_"
   overflow="visible"
   id="use71"
   x="0"
   y="0"
   width="100%"
   height="100%" />
			</clipPath>
		</g>
		<text
   transform="translate(206.7344,735.1274)"
   fill="#424242"
   font-family="SFUIText-Heavy"
   font-size="8.0614px"
   id="text76"> </text>
	</g>
	
	<path
   id="nose_mobile"
   fill-rule="evenodd"
   clip-rule="evenodd"
   fill="#ffffff"
   d="m 135.258,201.296 c 0,0 19.729,-94.325 76.863,-92.76 0,0 54.35,-5.323 76.56,91.752" />
	<g
   id="wings_back">
		<path
   fill="#f3f3f3"
   d="m 119.526,1264.239 21.874,-17.935 15.932,-29.041 c 0,0 20.861,80.397 38.364,124.792 0,0 -16.154,2.302 -24.356,6.555 l -51.813,24.005 v -108.376 z"
   id="path120" />
		<path
   fill="#f3f3f3"
   d="m 305.559,1264.239 -21.874,-17.935 -15.931,-29.041 c 0,0 -20.759,79.693 -38.37,124.792 0,0 16.156,2.302 24.358,6.555 l 51.816,24.005 v -108.376 z"
   id="path122" />
	</g>
	<g
   id="g131">
		<g
   id="wings_4_">
			<polygon
   fill="#e5e5e5"
   points="131.72,693.981 10.858,737.606 10.858,943.84 131.72,907.938 "
   id="polygon125" />
		</g>
		<g
   id="wings_2_">
			<polygon
   fill="#e5e5e5"
   points="293.247,693.981 414.115,737.606 414.115,943.84 293.247,907.938 "
   id="polygon128" />
		</g>
	</g>
</g>









</svg>
